<mxfile host="Electron" agent="Mozilla/5.0 (Macintosh; Intel Mac OS X 10_15_7) AppleWebKit/537.36 (KHTML, like Gecko) draw.io/27.0.5 Chrome/134.0.6998.205 Electron/35.3.0 Safari/537.36" version="27.0.5">
  <diagram name="Page-1" id="xFBABuUxaobWXg4LbbgL">
    <mxGraphModel dx="913" dy="484" grid="1" gridSize="10" guides="1" tooltips="1" connect="1" arrows="1" fold="1" page="1" pageScale="1" pageWidth="850" pageHeight="1100" math="0" shadow="0">
      <root>
        <mxCell id="0" />
        <mxCell id="1" parent="0" />
        <mxCell id="Ej8hDgJhuvleFJYb6pgI-1" value="&lt;b&gt;&lt;font style=&quot;font-size: 24px;&quot;&gt;LLM&lt;/font&gt;&lt;/b&gt;" style="shape=process;whiteSpace=wrap;html=1;backgroundOutline=1;" parent="1" vertex="1">
          <mxGeometry x="40" y="21" width="800" height="80" as="geometry" />
        </mxCell>
        <mxCell id="Ej8hDgJhuvleFJYb6pgI-3" value="" style="endArrow=classic;html=1;rounded=0;exitX=0;exitY=0;exitDx=0;exitDy=0;" parent="1" source="9C-nL1wVZKxt1_RIX7sx-7" edge="1">
          <mxGeometry width="50" height="50" relative="1" as="geometry">
            <mxPoint x="176" y="240" as="sourcePoint" />
            <mxPoint x="40" y="102" as="targetPoint" />
          </mxGeometry>
        </mxCell>
        <mxCell id="Ej8hDgJhuvleFJYb6pgI-6" value="&lt;p&gt;&lt;b&gt;&lt;font style=&quot;font-size: 12px;&quot;&gt;(3) LLM Response 1&lt;/font&gt;&lt;/b&gt;: Tools to be executed w/ information to pass to tools - Execute SIEM tool with MCP API details to identify end user devices as per user policy&lt;/p&gt;" style="text;html=1;align=center;verticalAlign=middle;whiteSpace=wrap;rounded=0;" parent="1" vertex="1">
          <mxGeometry x="149" y="101" width="141" height="120" as="geometry" />
        </mxCell>
        <mxCell id="Ej8hDgJhuvleFJYb6pgI-8" value="" style="endArrow=classic;html=1;rounded=0;entryX=0.5;entryY=0;entryDx=0;entryDy=0;exitX=0.5;exitY=1;exitDx=0;exitDy=0;" parent="1" source="9C-nL1wVZKxt1_RIX7sx-7" target="Ej8hDgJhuvleFJYb6pgI-9" edge="1">
          <mxGeometry width="50" height="50" relative="1" as="geometry">
            <mxPoint x="280" y="290" as="sourcePoint" />
            <mxPoint x="515.5" y="170" as="targetPoint" />
          </mxGeometry>
        </mxCell>
        <mxCell id="Ej8hDgJhuvleFJYb6pgI-9" value="&lt;b&gt;&lt;font style=&quot;font-size: 14px;&quot;&gt;SIEM MCP server tool&lt;/font&gt;&lt;/b&gt;" style="rounded=1;whiteSpace=wrap;html=1;" parent="1" vertex="1">
          <mxGeometry x="160" y="460" width="120" height="60" as="geometry" />
        </mxCell>
        <mxCell id="Ej8hDgJhuvleFJYb6pgI-10" value="&lt;b&gt;&lt;font style=&quot;font-size: 14px;&quot;&gt;ZTNA Gateway MCP server tool&lt;/font&gt;&lt;/b&gt;" style="rounded=1;whiteSpace=wrap;html=1;" parent="1" vertex="1">
          <mxGeometry x="600" y="460" width="120" height="60" as="geometry" />
        </mxCell>
        <mxCell id="Ej8hDgJhuvleFJYb6pgI-11" value="" style="endArrow=classic;html=1;rounded=0;entryX=0.5;entryY=0;entryDx=0;entryDy=0;exitX=0.5;exitY=1;exitDx=0;exitDy=0;" parent="1" source="9C-nL1wVZKxt1_RIX7sx-7" target="Ej8hDgJhuvleFJYb6pgI-10" edge="1">
          <mxGeometry width="50" height="50" relative="1" as="geometry">
            <mxPoint x="440.5" y="289" as="sourcePoint" />
            <mxPoint x="520.5" y="369" as="targetPoint" />
          </mxGeometry>
        </mxCell>
        <mxCell id="Ej8hDgJhuvleFJYb6pgI-12" value="&lt;b&gt;(4) Agent Request&lt;/b&gt;: Match policy &quot;ZTNA threat score &amp;lt; threshold for last x minutes&quot;&lt;div&gt;&lt;b&gt;(5) Server Response&lt;/b&gt;: list of devices&lt;/div&gt;" style="text;html=1;align=center;verticalAlign=middle;whiteSpace=wrap;rounded=0;fillColor=default;" parent="1" vertex="1">
          <mxGeometry x="200" y="380" width="180" height="60" as="geometry" />
        </mxCell>
        <mxCell id="Ej8hDgJhuvleFJYb6pgI-13" value="&lt;b&gt;(8) Agent Request&lt;/b&gt;: &quot;Block VPN access&quot; for device list&lt;div&gt;&lt;b&gt;(9) Server Response&lt;/b&gt;: Successfully executed policy&lt;/div&gt;" style="text;html=1;align=center;verticalAlign=middle;whiteSpace=wrap;rounded=0;fillColor=default;" parent="1" vertex="1">
          <mxGeometry x="500" y="379" width="180" height="60" as="geometry" />
        </mxCell>
        <mxCell id="9C-nL1wVZKxt1_RIX7sx-1" value="User" style="shape=umlActor;verticalLabelPosition=bottom;verticalAlign=top;html=1;outlineConnect=0;" parent="1" vertex="1">
          <mxGeometry y="342" width="30" height="60" as="geometry" />
        </mxCell>
        <mxCell id="9C-nL1wVZKxt1_RIX7sx-2" value="" style="endArrow=classic;html=1;rounded=0;entryX=0;entryY=0.5;entryDx=0;entryDy=0;exitX=0.5;exitY=0;exitDx=0;exitDy=0;exitPerimeter=0;" parent="1" source="9C-nL1wVZKxt1_RIX7sx-1" target="9C-nL1wVZKxt1_RIX7sx-7" edge="1">
          <mxGeometry width="50" height="50" relative="1" as="geometry">
            <mxPoint x="45" y="269.54" as="sourcePoint" />
            <mxPoint x="202.96000000000004" y="269.4980000000001" as="targetPoint" />
          </mxGeometry>
        </mxCell>
        <mxCell id="9C-nL1wVZKxt1_RIX7sx-3" value="&lt;p&gt;&lt;b&gt;&lt;font style=&quot;font-size: 12px;&quot;&gt;(2) Agent Prompt 1&lt;/font&gt;&lt;/b&gt;: User prompt + tools it supports - SIEM + ZTNA gateway with MCP schema&lt;/p&gt;" style="text;html=1;align=center;verticalAlign=middle;whiteSpace=wrap;rounded=0;" parent="1" vertex="1">
          <mxGeometry x="6" y="165" width="114" height="80" as="geometry" />
        </mxCell>
        <mxCell id="9C-nL1wVZKxt1_RIX7sx-7" value="&lt;b&gt;&lt;font style=&quot;font-size: 18px;&quot;&gt;AI Agent&lt;/font&gt;&lt;/b&gt;&lt;div&gt;&lt;b style=&quot;font-size: 10px; background-color: rgb(250, 250, 250); color: rgb(66, 66, 66); font-family: Aptos, sans-serif; text-align: start;&quot;&gt;&lt;span style=&quot;font-family: &amp;quot;Segoe UI&amp;quot;, sans-serif;&quot;&gt;Proof of residency&lt;/span&gt;&lt;/b&gt;&lt;span style=&quot;font-size: 10px; background-color: rgb(250, 250, 250); color: rgb(66, 66, 66); text-align: start; font-family: &amp;quot;Segoe UI&amp;quot;, sans-serif;&quot;&gt;&amp;nbsp;on a trusted host(s)&lt;/span&gt;&lt;/div&gt;&lt;div&gt;&lt;b style=&quot;color: rgb(66, 66, 66); font-family: Aptos, sans-serif; text-align: start;&quot;&gt;&lt;span style=&quot;font-family: &amp;quot;Segoe UI&amp;quot;, sans-serif;&quot;&gt;&lt;font style=&quot;font-size: 10px;&quot;&gt;Proof of geographic boundary&lt;/font&gt;&lt;/span&gt;&lt;/b&gt;&lt;span style=&quot;color: rgb(66, 66, 66); text-align: start; font-family: &amp;quot;Segoe UI&amp;quot;, sans-serif;&quot;&gt;&lt;font style=&quot;font-size: 10px;&quot;&gt; using trustworthy location sensors on trusted host(s)&lt;/font&gt;&lt;/span&gt;&lt;/div&gt;" style="rounded=1;whiteSpace=wrap;html=1;" parent="1" vertex="1">
          <mxGeometry x="200" y="240" width="480" height="70" as="geometry" />
        </mxCell>
        <mxCell id="9C-nL1wVZKxt1_RIX7sx-8" value="" style="endArrow=classic;html=1;rounded=0;exitX=0.5;exitY=0;exitDx=0;exitDy=0;" parent="1" source="9C-nL1wVZKxt1_RIX7sx-7" edge="1">
          <mxGeometry width="50" height="50" relative="1" as="geometry">
            <mxPoint x="471" y="240" as="sourcePoint" />
            <mxPoint x="440" y="103" as="targetPoint" />
          </mxGeometry>
        </mxCell>
        <mxCell id="9C-nL1wVZKxt1_RIX7sx-9" value="&lt;div&gt;&lt;b&gt;(6) Agent Prompt 2&lt;/b&gt; : User prompt + tools it supports + list of devices from SIEM MCP server tool&lt;/div&gt;" style="text;html=1;align=center;verticalAlign=middle;whiteSpace=wrap;rounded=0;fillColor=default;" parent="1" vertex="1">
          <mxGeometry x="320" y="108.5" width="116" height="80.5" as="geometry" />
        </mxCell>
        <mxCell id="9C-nL1wVZKxt1_RIX7sx-10" value="&lt;p&gt;&lt;b&gt;&lt;font style=&quot;font-size: 12px;&quot;&gt;(7) LLM Response 2&lt;/font&gt;&lt;/b&gt;: Tools to be executed w/ information to pass to tools - Execute ZTNA gateway tool with MCP API details to block traffic from offending devices&lt;/p&gt;" style="text;html=1;align=center;verticalAlign=middle;whiteSpace=wrap;rounded=0;" parent="1" vertex="1">
          <mxGeometry x="445" y="109" width="125" height="121" as="geometry" />
        </mxCell>
        <mxCell id="9C-nL1wVZKxt1_RIX7sx-11" value="" style="endArrow=classic;html=1;rounded=0;entryX=1;entryY=1;entryDx=0;entryDy=0;exitX=0.313;exitY=0.008;exitDx=0;exitDy=0;exitPerimeter=0;" parent="1" target="Ej8hDgJhuvleFJYb6pgI-1" edge="1">
          <mxGeometry width="50" height="50" relative="1" as="geometry">
            <mxPoint x="678" y="243" as="sourcePoint" />
            <mxPoint x="778" y="117" as="targetPoint" />
          </mxGeometry>
        </mxCell>
        <mxCell id="9C-nL1wVZKxt1_RIX7sx-12" value="&lt;div&gt;&lt;b&gt;(10) Agent Prompt 3&lt;/b&gt;: User prompt + tools it supports + output of SIEM tool 1 (SIEM) + output of tool 2&lt;/div&gt;" style="text;html=1;align=center;verticalAlign=middle;whiteSpace=wrap;rounded=0;fillColor=none;" parent="1" vertex="1">
          <mxGeometry x="620" y="102" width="140" height="80" as="geometry" />
        </mxCell>
        <mxCell id="9C-nL1wVZKxt1_RIX7sx-16" value="&lt;b&gt;(11) Final response from LLM&lt;/b&gt;: Action complete" style="text;html=1;align=center;verticalAlign=middle;whiteSpace=wrap;rounded=0;fillColor=default;" parent="1" vertex="1">
          <mxGeometry x="760" y="184.5" width="80" height="45.5" as="geometry" />
        </mxCell>
        <mxCell id="Ej8hDgJhuvleFJYb6pgI-4" value="&lt;p&gt;&lt;b&gt;&lt;font style=&quot;font-size: 12px;&quot;&gt;(1) User Prompt&lt;/font&gt;&lt;/b&gt;: Identify end user devices with ZTNA threat score &amp;lt; threshold for last x minutes and block VPN access&lt;br&gt;&lt;b&gt;(12) Final response from LLM: &lt;/b&gt;Action complete&lt;/p&gt;" style="text;html=1;align=center;verticalAlign=middle;whiteSpace=wrap;rounded=0;fillColor=default;" parent="1" vertex="1">
          <mxGeometry x="40" y="271" width="147" height="110" as="geometry" />
        </mxCell>
      </root>
    </mxGraphModel>
  </diagram>
</mxfile>
